<svg xmlns="http://www.w3.org/2000/svg" width="800px" height="800px" viewBox="0 0 128 128" data-name="Слой 1" id="Слой_1" fill="#4169E1">

<g id="SVGRepo_bgCarrier" stroke-width="0"/>

<g id="SVGRepo_tracerCarrier" stroke-linecap="round" stroke-linejoin="round"/>

<g id="SVGRepo_iconCarrier">

<defs>

<style>.cls-1{fill:#ffffff;}.cls-2{fill:#<!-- Uploaded to: SVG Repo, www.svgrepo.com, Transformed by: SVG Repo Mixer Tools -->
<svg xmlns="http://www.w3.org/2000/svg" width="800px" height="800px" viewBox="0 0 24 24" fill="none">  <g id="SVGRepo_bgCarrier" stroke-width="0"/>  <g id="SVGRepo_tracerCarrier" stroke-linecap="round" stroke-linejoin="round"/>  <g id="SVGRepo_iconCarrier"> <path d="M17 20.5H7C4 20.5 2 19 2 15.5V8.5C2 5 4 3.5 7 3.5H17C20 3.5 22 5 22 8.5V15.5C22 19 20 20.5 17 20.5Z" stroke="#4169E1" stroke-width="1.5" stroke-miterlimit="10" stroke-linecap="round" stroke-linejoin="round"/> <path d="M17 9L13.87 11.5C12.84 12.32 11.15 12.32 10.12 11.5L7 9" stroke="#4169E1" stroke-width="1.5" stroke-miterlimit="10" stroke-linecap="round" stroke-linejoin="round"/> </g>  </svg>;}</style>

</defs>

<title/>

<path class="cls-1" d="M98,52.91V9.75A7.9,7.9,0,0,0,90,2H38a7.9,7.9,0,0,0-8,7.75v108.5A7.9,7.9,0,0,0,38,126H90a7.9,7.9,0,0,0,8-7.75Z"/>

<path class="cls-2" d="M90,128H38a9.89,9.89,0,0,1-10-9.75V9.75A9.89,9.89,0,0,1,38,0H90a9.89,9.89,0,0,1,10,9.75v108.5A9.89,9.89,0,0,1,90,128ZM38,4a5.89,5.89,0,0,0-6,5.75v108.5A5.89,5.89,0,0,0,38,124H90a5.89,5.89,0,0,0,6-5.75V9.75A5.89,5.89,0,0,0,90,4Z"/>

<path class="cls-2" d="M75.05,12H52.95C50.22,12,48,9.43,48,6.28V2.49h4V6.28c0,1,.57,1.72.95,1.72H75.05c.38,0,.95-.69.95-1.72V3.11h4V6.28C80,9.43,77.78,12,75.05,12Z"/>

</g>

</svg>