<svg xmlns="http://www.w3.org/2000/svg" fill="#4169E1" width="800px" height="800px" viewBox="0 0 24 24">

<g id="SVGRepo_bgCarrier" stroke-width="0"/>

<g id="SVGRepo_tracerCarrier" stroke-linecap="round" stroke-linejoin="round"/>

<g id="SVGRepo_iconCarrier"> <path d="M7,4.5 L7,19.5 C7,20.3284271 7.67157288,21 8.5,21 L15.5113578,21 C16.3397849,21 17.0113578,20.3284271 17.0113578,19.5 L17.0113578,4.5 C17.0113578,3.67157288 16.3397849,3 15.5113578,3 L8.5,3 C7.67157288,3 7,3.67157288 7,4.5 Z M6,4.5 C6,3.11928813 7.11928813,2 8.5,2 L15.5113578,2 C16.8920696,2 18.0113578,3.11928813 18.0113578,4.5 L18.0113578,19.5 C18.0113578,20.8807119 16.8920696,22 15.5113578,22 L8.5,22 C7.11928813,22 6,20.8807119 6,19.5 L6,4.5 Z M11,19 C11,18.448 11.448,18 12,18 C12.552,18 13,18.448 13,19 C13,19.552 12.552,20 12,20 C11.448,20 11,19.552 11,19 Z"/> </g>

</svg>